<mxfile host="app.diagrams.net" modified="2024-05-23T04:51:24.351Z" agent="Mozilla/5.0 (Windows NT 10.0; Win64; x64) AppleWebKit/537.36 (KHTML, like Gecko) Chrome/125.0.0.0 Safari/537.36" etag="CFj53x4Itl050RayRb-W" version="24.4.6" type="device">
  <diagram name="PÃ¡gina-1" id="zeZB_BjMCINb40aidZSy">
    <mxGraphModel dx="1434" dy="746" grid="1" gridSize="10" guides="1" tooltips="1" connect="1" arrows="1" fold="1" page="1" pageScale="1" pageWidth="827" pageHeight="1169" math="0" shadow="0">
      <root>
        <mxCell id="0" />
        <mxCell id="1" parent="0" />
        <mxCell id="mhkq34D6y14zn2pgu8SZ-4" value="ReprodutorMusical" style="swimlane;fontStyle=0;childLayout=stackLayout;horizontal=1;startSize=26;fillColor=none;horizontalStack=0;resizeParent=1;resizeParentMax=0;resizeLast=0;collapsible=1;marginBottom=0;whiteSpace=wrap;html=1;" parent="1" vertex="1">
          <mxGeometry x="70" y="230" width="240" height="104" as="geometry" />
        </mxCell>
        <mxCell id="mhkq34D6y14zn2pgu8SZ-5" value="+ tocar(): void" style="text;strokeColor=none;fillColor=none;align=left;verticalAlign=top;spacingLeft=4;spacingRight=4;overflow=hidden;rotatable=0;points=[[0,0.5],[1,0.5]];portConstraint=eastwest;whiteSpace=wrap;html=1;" parent="mhkq34D6y14zn2pgu8SZ-4" vertex="1">
          <mxGeometry y="26" width="240" height="26" as="geometry" />
        </mxCell>
        <mxCell id="mhkq34D6y14zn2pgu8SZ-6" value="+ pausar(): void" style="text;strokeColor=none;fillColor=none;align=left;verticalAlign=top;spacingLeft=4;spacingRight=4;overflow=hidden;rotatable=0;points=[[0,0.5],[1,0.5]];portConstraint=eastwest;whiteSpace=wrap;html=1;" parent="mhkq34D6y14zn2pgu8SZ-4" vertex="1">
          <mxGeometry y="52" width="240" height="26" as="geometry" />
        </mxCell>
        <mxCell id="mhkq34D6y14zn2pgu8SZ-7" value="+ selecionarMusica(musica: String): void" style="text;strokeColor=none;fillColor=none;align=left;verticalAlign=top;spacingLeft=4;spacingRight=4;overflow=hidden;rotatable=0;points=[[0,0.5],[1,0.5]];portConstraint=eastwest;whiteSpace=wrap;html=1;" parent="mhkq34D6y14zn2pgu8SZ-4" vertex="1">
          <mxGeometry y="78" width="240" height="26" as="geometry" />
        </mxCell>
        <mxCell id="mhkq34D6y14zn2pgu8SZ-12" value="AparelhoTelefonico" style="swimlane;fontStyle=0;childLayout=stackLayout;horizontal=1;startSize=26;fillColor=none;horizontalStack=0;resizeParent=1;resizeParentMax=0;resizeLast=0;collapsible=1;marginBottom=0;whiteSpace=wrap;html=1;" parent="1" vertex="1">
          <mxGeometry x="350" y="230" width="196" height="104" as="geometry" />
        </mxCell>
        <mxCell id="mhkq34D6y14zn2pgu8SZ-13" value="+ ligar(numero: String): void" style="text;strokeColor=none;fillColor=none;align=left;verticalAlign=top;spacingLeft=4;spacingRight=4;overflow=hidden;rotatable=0;points=[[0,0.5],[1,0.5]];portConstraint=eastwest;whiteSpace=wrap;html=1;" parent="mhkq34D6y14zn2pgu8SZ-12" vertex="1">
          <mxGeometry y="26" width="196" height="26" as="geometry" />
        </mxCell>
        <mxCell id="mhkq34D6y14zn2pgu8SZ-14" value="+ atender(): void" style="text;strokeColor=none;fillColor=none;align=left;verticalAlign=top;spacingLeft=4;spacingRight=4;overflow=hidden;rotatable=0;points=[[0,0.5],[1,0.5]];portConstraint=eastwest;whiteSpace=wrap;html=1;" parent="mhkq34D6y14zn2pgu8SZ-12" vertex="1">
          <mxGeometry y="52" width="196" height="26" as="geometry" />
        </mxCell>
        <mxCell id="mhkq34D6y14zn2pgu8SZ-15" value="+ iniciarCorreioVoz(): void" style="text;strokeColor=none;fillColor=none;align=left;verticalAlign=top;spacingLeft=4;spacingRight=4;overflow=hidden;rotatable=0;points=[[0,0.5],[1,0.5]];portConstraint=eastwest;whiteSpace=wrap;html=1;" parent="mhkq34D6y14zn2pgu8SZ-12" vertex="1">
          <mxGeometry y="78" width="196" height="26" as="geometry" />
        </mxCell>
        <mxCell id="mhkq34D6y14zn2pgu8SZ-16" value="NavegadorInternet" style="swimlane;fontStyle=0;childLayout=stackLayout;horizontal=1;startSize=26;fillColor=none;horizontalStack=0;resizeParent=1;resizeParentMax=0;resizeLast=0;collapsible=1;marginBottom=0;whiteSpace=wrap;html=1;" parent="1" vertex="1">
          <mxGeometry x="590" y="230" width="200" height="104" as="geometry" />
        </mxCell>
        <mxCell id="mhkq34D6y14zn2pgu8SZ-17" value="+ exibirPagina(url: String): void" style="text;strokeColor=none;fillColor=none;align=left;verticalAlign=top;spacingLeft=4;spacingRight=4;overflow=hidden;rotatable=0;points=[[0,0.5],[1,0.5]];portConstraint=eastwest;whiteSpace=wrap;html=1;" parent="mhkq34D6y14zn2pgu8SZ-16" vertex="1">
          <mxGeometry y="26" width="200" height="26" as="geometry" />
        </mxCell>
        <mxCell id="mhkq34D6y14zn2pgu8SZ-18" value="+ adicionarNovaAba(): void" style="text;strokeColor=none;fillColor=none;align=left;verticalAlign=top;spacingLeft=4;spacingRight=4;overflow=hidden;rotatable=0;points=[[0,0.5],[1,0.5]];portConstraint=eastwest;whiteSpace=wrap;html=1;" parent="mhkq34D6y14zn2pgu8SZ-16" vertex="1">
          <mxGeometry y="52" width="200" height="26" as="geometry" />
        </mxCell>
        <mxCell id="mhkq34D6y14zn2pgu8SZ-19" value="+ atualizarPagina(): void" style="text;strokeColor=none;fillColor=none;align=left;verticalAlign=top;spacingLeft=4;spacingRight=4;overflow=hidden;rotatable=0;points=[[0,0.5],[1,0.5]];portConstraint=eastwest;whiteSpace=wrap;html=1;" parent="mhkq34D6y14zn2pgu8SZ-16" vertex="1">
          <mxGeometry y="78" width="200" height="26" as="geometry" />
        </mxCell>
        <mxCell id="mhkq34D6y14zn2pgu8SZ-25" value="Iphone" style="swimlane;fontStyle=0;childLayout=stackLayout;horizontal=1;startSize=26;fillColor=none;horizontalStack=0;resizeParent=1;resizeParentMax=0;resizeLast=0;collapsible=1;marginBottom=0;whiteSpace=wrap;html=1;" parent="1" vertex="1">
          <mxGeometry x="368" y="30" width="160" height="104" as="geometry" />
        </mxCell>
        <mxCell id="mhkq34D6y14zn2pgu8SZ-26" value="+ ReprodutorMusical" style="text;strokeColor=none;fillColor=none;align=left;verticalAlign=top;spacingLeft=4;spacingRight=4;overflow=hidden;rotatable=0;points=[[0,0.5],[1,0.5]];portConstraint=eastwest;whiteSpace=wrap;html=1;" parent="mhkq34D6y14zn2pgu8SZ-25" vertex="1">
          <mxGeometry y="26" width="160" height="26" as="geometry" />
        </mxCell>
        <mxCell id="mhkq34D6y14zn2pgu8SZ-27" value="+ AparelhoTelefonico" style="text;strokeColor=none;fillColor=none;align=left;verticalAlign=top;spacingLeft=4;spacingRight=4;overflow=hidden;rotatable=0;points=[[0,0.5],[1,0.5]];portConstraint=eastwest;whiteSpace=wrap;html=1;" parent="mhkq34D6y14zn2pgu8SZ-25" vertex="1">
          <mxGeometry y="52" width="160" height="26" as="geometry" />
        </mxCell>
        <mxCell id="mhkq34D6y14zn2pgu8SZ-28" value="+ NavegadorInternet" style="text;strokeColor=none;fillColor=none;align=left;verticalAlign=top;spacingLeft=4;spacingRight=4;overflow=hidden;rotatable=0;points=[[0,0.5],[1,0.5]];portConstraint=eastwest;whiteSpace=wrap;html=1;" parent="mhkq34D6y14zn2pgu8SZ-25" vertex="1">
          <mxGeometry y="78" width="160" height="26" as="geometry" />
        </mxCell>
        <mxCell id="mhkq34D6y14zn2pgu8SZ-34" value="" style="endArrow=classic;html=1;rounded=0;" parent="1" target="mhkq34D6y14zn2pgu8SZ-12" edge="1">
          <mxGeometry width="50" height="50" relative="1" as="geometry">
            <mxPoint x="447.58000000000004" y="134" as="sourcePoint" />
            <mxPoint x="448" y="220" as="targetPoint" />
          </mxGeometry>
        </mxCell>
        <mxCell id="mhkq34D6y14zn2pgu8SZ-36" value="" style="endArrow=classic;html=1;rounded=0;" parent="1" edge="1">
          <mxGeometry width="50" height="50" relative="1" as="geometry">
            <mxPoint x="528" y="81.58" as="sourcePoint" />
            <mxPoint x="690" y="230" as="targetPoint" />
            <Array as="points">
              <mxPoint x="689" y="82" />
            </Array>
          </mxGeometry>
        </mxCell>
        <mxCell id="mhkq34D6y14zn2pgu8SZ-37" value="" style="endArrow=classic;html=1;rounded=0;entryX=0.5;entryY=0;entryDx=0;entryDy=0;" parent="1" target="mhkq34D6y14zn2pgu8SZ-4" edge="1">
          <mxGeometry width="50" height="50" relative="1" as="geometry">
            <mxPoint x="368" y="81.58" as="sourcePoint" />
            <mxPoint x="206" y="230.00000000000003" as="targetPoint" />
            <Array as="points">
              <mxPoint x="190" y="82" />
            </Array>
          </mxGeometry>
        </mxCell>
      </root>
    </mxGraphModel>
  </diagram>
</mxfile>
